<?xml version="1.0" standalone="no"?>
<!DOCTYPE svg PUBLIC "-//W3C//DTD SVG 20010904//EN"
 "http://www.w3.org/TR/2001/REC-SVG-20010904/DTD/svg10.dtd">
<svg version="1.0" xmlns="http://www.w3.org/2000/svg"
 width="512.000000pt" height="512.000000pt" viewBox="0 0 512.000000 512.000000"
 preserveAspectRatio="xMidYMid meet">
<metadata>
Created by potrace 1.14, written by Peter Selinger 2001-2017
</metadata>
<g transform="translate(0.000000,512.000000) scale(0.100000,-0.100000)"
fill="#000000" stroke="none">
<path d="M2515 4236 c-42 -42 -70 -156 -70 -281 0 -115 6 -139 58 -265 28 -68
31 -85 31 -180 0 -85 -4 -115 -22 -160 -28 -70 -28 -91 1 -118 52 -49 101 -18
136 87 46 135 38 282 -25 443 -53 135 -56 284 -8 376 19 36 18 65 -3 91 -27
32 -70 35 -98 7z"/>
<path d="M1517 4109 c-44 -26 -78 -136 -82 -269 -4 -111 1 -135 69 -325 32
-90 30 -216 -4 -313 -18 -51 -20 -69 -11 -88 16 -36 52 -49 87 -32 56 26 100
184 91 328 -4 81 -13 114 -70 260 -31 78 -30 232 1 310 29 71 28 94 -4 119
-29 23 -50 26 -77 10z"/>
<path d="M3522 4092 c-38 -40 -65 -139 -70 -252 -4 -100 5 -141 72 -325 22
-60 25 -83 22 -160 -3 -61 -11 -108 -26 -147 -26 -69 -24 -95 11 -120 78 -59
148 60 155 262 3 117 -5 160 -57 285 -30 73 -33 89 -33 185 0 85 4 116 22 162
32 80 18 123 -43 134 -20 3 -33 -2 -53 -24z"/>
<path d="M2280 2849 c-147 -10 -266 -23 -362 -40 -32 -6 -70 -12 -85 -15 -16
-2 -34 -7 -42 -10 -8 -2 -30 -7 -50 -10 -20 -3 -79 -17 -131 -30 -428 -114
-801 -303 -1117 -566 -182 -151 -269 -316 -280 -531 -18 -332 187 -637 500
-742 103 -34 166 -41 386 -40 180 0 184 1 202 24 10 13 19 28 19 35 0 8 35 11
118 10 141 -2 132 -1 132 -17 0 -8 9 -22 20 -32 17 -16 39 -19 128 -20 119 -2
147 6 160 43 8 26 9 26 120 27 98 0 113 -2 118 -17 3 -10 15 -26 28 -35 21
-17 78 -18 1077 -17 580 1 1065 5 1079 8 14 4 36 9 50 12 48 10 167 62 224 99
120 76 236 221 285 355 58 157 65 282 27 455 -21 98 -110 249 -193 325 -66 62
-143 125 -171 139 -24 13 -72 7 -82 -9 -3 -5 -48 19 -100 53 -86 57 -95 65
-95 94 0 45 -23 64 -143 123 -301 148 -648 256 -942 295 -25 3 -56 8 -70 10
-14 2 -54 7 -90 11 -36 4 -78 8 -95 10 -63 8 -525 11 -625 3z"/>
</g>
</svg>
